<svg width="42" height="44" viewBox="0 0 42 44" fill="none" xmlns="http://www.w3.org/2000/svg">
<path d="M32.0263 12.453C39.6188 6.09709 42.5235 2.87601 41.143 2.35834C40.4241 2.0995 40.1077 2.15699 38.8423 2.76094C36.3977 3.96884 27.5111 11.5614 27.5111 12.453C27.5111 13.6896 30.5021 13.7184 32.0263 12.453Z" fill="#757575"/>
<path d="M12.096 12.683C13.0451 12.0503 12.9876 11.9353 9.30636 7.93772C7.35072 5.78062 5.74031 4.42893 4.56117 3.91126C2.95064 3.19227 2.17411 4.17015 2.80682 4.97541C8.2135 11.9353 10.4567 13.7759 12.096 12.683Z" fill="#757575"/>
<path d="M37.6919 22.0586C35.9376 21.5409 26.9649 18.6938 26.3035 18.4349C25.9871 18.3199 25.757 17.7447 25.642 16.7669C24.6929 9.46197 23.1971 1.95559 22.5357 1.12157C22.0468 0.488859 20.3787 0.690175 19.9186 1.40916C19.4584 2.12815 17.3302 9.40445 16.0648 14.6962L15.2311 18.1473C-1.10439 23.324 -1.99599 23.209 5.39518 25.481L11.9237 27.4941C15.6337 28.6445 15.7197 28.673 15.921 29.5933C16.2086 30.9162 18.078 37.3586 18.797 40.4359C20.3212 47.0505 23.4275 42.9667 26.1597 30.6577L26.7924 27.8392C27.1375 27.7817 29.3229 27.5804 38.756 25.5385C40.913 25.0496 40.2802 22.8063 37.6919 22.0586ZM33.6081 23.4678C33.378 23.6691 27.0797 25.1934 25.843 25.1934C24.3475 25.1934 24.0024 25.9124 22.3056 32.6708C21.184 37.1285 21.098 37.2145 20.4653 34.6262C19.6888 31.3764 18.1067 27.5804 17.9054 26.6889C17.7329 25.8836 16.1223 25.3084 9.88154 23.8129C6.7469 23.0652 6.25799 22.8063 7.43699 22.4612C8.90372 22.0298 15.9498 19.7291 16.755 19.7291C17.5315 19.7291 18.193 19.1539 18.4231 18.2911L20.6663 9.54825C21.069 8.024 21.0692 8.024 22.1909 13.9772C23.485 20.6781 23.3409 20.3903 25.4116 20.8217C28 21.3681 33.8669 23.2377 33.6081 23.4678Z" fill="#757575"/>
<path d="M28.3739 31.1178C28.3739 31.7505 35.9663 39.4293 37.0304 39.8607C39.2737 40.781 39.8489 39.5728 38.0658 37.6459C33.263 32.383 28.3739 29.1047 28.3739 31.1178Z" fill="#757575"/>
<path d="M6.22924 32.9584C0.707433 36.6972 0.0746966 37.5599 2.8356 37.5599C4.18729 37.5599 12.7287 31.6355 12.4699 30.859C12.0673 29.6511 10.1404 30.2838 6.22924 32.9584Z" fill="#757575"/>
</svg>
