<svg width="48" height="47" viewBox="0 0 48 47" fill="none" xmlns="http://www.w3.org/2000/svg">
<path d="M39.6151 19.1513L38.9469 16.9431L39.6986 15.9822C42.4758 12.4041 37.3181 6.80178 33.2254 8.94864C32.7869 9.17355 32.2649 9.194 31.5132 9.00998C30.135 8.66239 25.6246 7.92633 24.7059 7.8241C21.6572 7.45606 22.4924 8.90774 23.8079 9.03042C26.773 9.33712 26.7104 9.17355 25.9169 9.9914C24.6849 11.2795 25.7499 16.3093 27.7127 18.4971C29.4877 20.4804 33.7892 21.5436 35.1256 20.3168C37.7776 17.8632 37.0467 29.2314 34.3113 32.7073C25.7917 43.5642 7.83366 33.0957 11.0703 19.1513L11.4462 17.5156L12.9914 18.5175C15.6851 20.2759 16.7918 19.3967 14.7245 17.1476C11.3417 13.4877 12.4903 8.82596 16.0401 11.7907C17.2303 12.7925 18.692 12.9357 19.2976 12.1383C21.0934 9.7256 22.1583 10.5843 22.1374 13.1606C22.1374 14.5509 21.4692 15.4915 18.7338 17.9859C16.3324 20.1737 16.228 20.9097 18.3161 20.9097C19.7152 20.9097 24.2464 15.655 24.6431 13.5899C25.2069 10.6866 21.1977 8.3148 18.8173 10.1345C18.2744 10.5639 17.9403 10.6457 17.7315 10.4412C17.5227 10.2368 17.5644 9.86872 18.2326 9.50068C18.9008 9.13265 19.924 8.84641 19.6943 8.23302C19.3811 7.41517 17.0633 8.47837 16.75 8.66239C16.4368 8.82596 15.3092 9.54158 14.3487 9.54158C11.0494 9.54158 9.79655 10.523 10.068 12.8743C10.2142 14.1829 10.1307 14.5509 9.37896 15.8595C3.5113 26.0418 11.4462 38.9025 23.7453 39.1478C36.2532 39.4341 43.1232 30.7444 39.6151 19.1513ZM35.397 17.0249C33.1419 19.4785 32.8078 19.5807 30.9494 18.5175C29.4668 17.6588 28.2556 15.4301 28.0051 13.0788C27.7545 10.6048 29.0492 9.95051 31.2626 11.4226L32.3484 12.1587L33.4342 11.4635C36.5455 9.43935 40.6383 11.3409 35.397 17.0249Z" fill="#757575"/>
<path d="M13.7015 23.7109C13.8476 24.1403 14.1608 25.5715 14.4114 26.9005C16.2699 36.817 32.5156 36.633 33.3508 26.696C33.4552 25.4693 33.6849 24.3856 33.852 24.2834C35.3137 23.3633 31.4089 22.1365 28.6525 22.6681C27.7964 22.8317 24.518 22.8726 20.6132 22.7704C13.3883 22.5659 13.3465 22.5659 13.7015 23.7109ZM31.4089 24.3856V25.8986C31.4089 31.5214 21.1561 34.6088 17.7524 29.9879C16.5831 28.4135 16.604 27.4526 16.4369 24.4878C26.0424 24.1812 26.2721 24.222 31.4089 24.3856Z" fill="#757575"/>
</svg>
