<svg width="66" height="66" viewBox="0 0 66 66" fill="none" xmlns="http://www.w3.org/2000/svg">
<path d="M32.6427 25.1478C43.2634 17.9429 46.3848 15.9601 46.3848 15.43C46.3848 15.057 44.9713 15.3122 43.9111 15.8815C38.1788 18.944 25.9285 27.6408 26.2231 28.4654C26.4587 29.172 27.5187 28.6224 32.6427 25.1478Z" fill="#697077"/>
<path d="M64.2494 11.6608C64.2494 10.9737 62.6201 10.3062 61.6189 10.5811C60.8728 10.7774 57.6336 13.035 51.3906 16.981C45.3637 20.7699 43.9896 21.8103 44.3429 22.3599C44.8927 23.2434 47.8766 21.0251 58.5562 15.1356C64.4261 11.8768 64.2494 11.9749 64.2494 11.6608Z" fill="#697077"/>
<path d="M37.9432 25.6579C25.6144 32.6663 28.3433 31.6259 18.6649 36.4749C10.027 40.8135 8.86872 41.0883 5.74729 39.6944C2.25286 38.124 1.78173 38.5755 3.21483 42.1485C3.84304 43.7188 4.00007 44.3276 3.92153 44.9755C3.74485 46.4477 2.99885 48.5877 2.2921 49.5495C0.0541079 52.6513 4.68716 51.3359 5.04052 51.179C6.86628 50.3936 8.71164 51.179 11.3815 53.8685C13.1484 55.6354 15.8968 55.9887 15.2294 54.3594C13.7963 50.8649 14.2478 47.2723 18.9201 43.2087C22.7091 39.93 28.4218 35.3756 33.4866 31.9205C40.8879 26.8554 41.516 26.3254 40.9074 25.6186C40.4952 25.128 38.8265 25.1475 37.9432 25.6579ZM15.3864 42.698C10.9104 47.1937 11.3227 50.217 11.2049 50.5705C8.65277 49.2551 9.04538 49.3533 5.78654 49.1766L6.29698 48.0773C7.41599 45.6625 6.55221 42.4233 6.55221 42.4037L8.02458 42.8747C10.8319 43.7582 13.1484 43.3264 16.0931 41.3829C16.7213 40.9706 17.2907 40.6173 17.3496 40.6173C17.4281 40.5975 16.5447 41.54 15.3864 42.698Z" fill="#697077"/>
</svg>
