<svg width="76" height="76" viewBox="0 0 76 76" fill="none" xmlns="http://www.w3.org/2000/svg">
<path fill-rule="evenodd" clip-rule="evenodd" d="M44.8795 17.3525C43.4392 17.9589 37.3558 29.8227 35.4607 35.565C35.4038 35.7166 35.309 35.4324 35.2332 34.9017C33.8687 25.1417 30.7607 19.7595 28.0885 22.4316C27.0273 23.4929 27.5199 36.6642 28.8655 43.5247C29.5098 46.8033 29.5857 46.6138 27.9938 45.4578C24.1277 42.6529 17.7599 39.5448 15.9026 39.5448C12.8325 39.5448 14.5192 41.8758 23.7107 50.3093L27.3494 53.6637L25.4542 53.9101C19.4276 54.6681 13.7043 56.7339 15.1067 57.6436C16.6608 58.648 35.4607 58.8755 35.6692 57.871C35.8208 57.0751 34.7026 56.9044 28.9792 56.9423C28.9603 56.9423 20.5079 56.9803 20.7543 56.9803C20.5268 56.9803 20.4889 56.6581 20.7163 56.6012C25.9848 55.2936 26.4397 55.1799 28.8087 55.5021C31.6324 55.8811 32.7885 55.4073 30.7418 53.4174C28.7708 51.4844 24.0329 47.3339 20.47 43.8658C20.2426 43.6383 20.5079 43.2782 20.7922 43.4108C24.1087 45.1165 28.1833 48.073 30.0405 50.1198C31.6135 51.8633 33.755 51.579 32.978 49.7407C32.6748 49.0206 31.4997 42.4444 31.0449 38.9763C30.7606 36.7211 30.4575 28.8751 30.628 28.0792C30.7228 27.6433 31.6893 29.1973 32.1252 31.7368C32.3715 33.196 33.3192 39.7153 33.774 45.0597C33.9825 47.4855 36.086 48.073 36.7304 44.4722C38.7203 33.4235 42.8517 25.0091 41.1082 31.7179C40.5586 33.8405 38.8529 41.402 38.057 45.1165C37.1473 49.3427 40.1985 48.054 40.7481 46.5758C41.6957 44.0363 48.9731 30.2207 48.9731 30.9598C48.9731 32.2296 46.5473 38.8435 44.1215 44.1689C41.6957 49.5132 45.5239 48.509 46.9642 45.9316C49.1436 42.0275 51.1715 39.7911 53.0477 37.6686C53.6541 36.9674 54.6017 36.0199 54.9618 36.2283C55.3029 36.4178 54.9807 37.6118 54.5448 38.4078C54.5448 38.4267 49.5606 46.9548 47.855 50.6124C46.4525 53.6257 48.7078 52.6403 51.6832 51.1242C55.7957 49.0205 56.1178 49.0585 52.8961 51.2569C49.409 53.6448 48.8973 54.327 50.6219 54.327C52.555 54.346 61.2916 48.4141 61.2916 47.1064C61.2916 45.8177 58.6384 46.3295 52.8013 48.6984C51.3042 49.3049 51.2473 49.5891 53.7299 44.8322C58.7331 35.2427 59.0553 34.4658 58.7521 33.215C58.2783 31.3198 55.9473 31.9831 52.8203 34.9206L50.584 37.0243L51.1904 35.1481C52.9908 29.6332 52.9719 26.127 51.1147 25.7859C48.8594 25.369 48.6509 25.5586 45.865 30.2586C44.6521 32.2864 43.5909 34.0868 43.4961 34.2384C43.2497 34.6174 44.4437 30.0501 46.0925 24.1941C47.6844 18.5844 47.7602 18.1107 47.3054 17.6938C46.8884 17.3147 45.4291 17.1061 44.8795 17.3525Z" fill="#697077"/>
</svg>
