<svg width="117" height="101" viewBox="0 0 117 101" fill="none" xmlns="http://www.w3.org/2000/svg">
<path fill-rule="evenodd" clip-rule="evenodd" d="M111.648 94.5983C111.469 93.8476 110.412 91.3076 109.348 88.9266C104.51 78.1565 100.828 63.9876 100.708 55.7576C100.598 49.7566 99.6377 47.4331 97.9244 49.0036C95.7138 51.03 96.2341 63.4695 98.9767 73.6178C100.301 78.5572 100.354 78.5595 96.957 73.6891C93.9611 69.3668 85.4434 59.0205 84.2045 58.2238C80.5362 55.9417 81.1395 65.2541 84.8493 69.0237C86.528 70.6886 89.7447 74.8083 91.253 76.7311C78.6547 69.9218 75.0349 67.7479 73.9111 70.4053C72.0827 74.624 74.5167 77.2238 86.8434 84.1805C92.644 87.4573 96.3008 90.0042 101.266 94.1998C111.041 102.478 113.742 102.596 111.648 94.5983ZM75.8984 46.6662C70.4269 40.6974 61.285 36.161 59.0168 38.291C56.8614 40.2667 60.4928 45.8371 66.0885 48.9459C68.108 50.0949 71.3621 52.1467 73.3194 53.5054C79.2375 57.7425 81.2684 52.5244 75.8984 46.6662ZM62.3557 50.5877C60.3132 48.7478 57.6397 50.4357 57.0594 55.2393C53.064 67.8008 39.0978 60.7198 35.8394 53.8921C33.8936 49.8277 32.0837 51.1817 32.6593 56.2478C34.1607 69.3136 50.6346 74.8587 58.7541 65.0767C62.4478 60.6738 64.4489 52.4829 62.3557 50.5877ZM52.3872 22.349C50.5427 19.6156 44.6131 14.4229 42.5729 13.7505C38.3335 12.3988 38.8147 19.6363 43.1646 23.3277C45.6723 25.4531 51.2565 30.0472 52.1316 30.669C54.5425 32.578 54.7797 25.9022 52.3872 22.349ZM51.8529 34.6366C47.077 29.7593 32.9426 36.3082 32.6294 43.5112C32.4383 47.9072 34.216 48.5151 39.0656 45.5952C42.4438 43.5665 45.4051 42.5809 50.485 41.6875C53.3704 41.2293 54.1902 37.0198 51.8529 34.6366ZM29.0235 9.2878C28.3649 4.90795 9.29577 -1.97047 5.61825 0.841179C2.43353 3.30282 4.98266 9.35657 9.51449 10.0843C11.2001 10.3698 13.7769 10.9066 15.2437 11.3418C23.7893 13.7298 27.7316 14.5909 28.1737 14.1857C28.784 13.5754 29.2698 10.9435 29.0235 9.2878Z" fill="#757575"/>
</svg>
