<svg width="91" height="91" viewBox="0 0 91 91" fill="none" xmlns="http://www.w3.org/2000/svg">
<path d="M73.0622 64.7634C60.3263 68.4135 46.7681 68.8283 34.93 61.6246C24.2449 55.1224 19.855 43.9698 31.3022 35.5418C36.7209 31.5521 45.8126 30.4438 51.043 35.3603C56.8701 40.8375 48.6802 47.3836 43.4641 48.3642C31.2814 50.6545 17.5906 43.4381 14.0208 30.3331C9.7932 14.8138 26.2393 12.9858 26.2146 13.093" stroke="#757575" stroke-width="1.88336" stroke-miterlimit="1.5" stroke-linecap="round" stroke-linejoin="round"/>
<path d="M66.2427 77.8536C66.309 76.3898 66.973 75.1143 67.5701 73.8075C69.5305 69.5164 73.0137 65.5216 77.4864 63.7202C72.274 64.0577 65.393 62.739 62.2501 58.2392" stroke="#757575" stroke-width="1.88336" stroke-miterlimit="1.5" stroke-linecap="round" stroke-linejoin="round"/>
</svg>