<svg width="86" height="48" viewBox="0 0 86 48" fill="none" xmlns="http://www.w3.org/2000/svg">
<path fill-rule="evenodd" clip-rule="evenodd" d="M33.7511 2.85031C33.8131 6.01149 37.5012 11.0942 40.0116 10.1334C41.0963 9.69953 41.0962 9.23468 39.9185 5.85655C37.0982 -2.17037 33.6891 0.308965 33.7511 2.85031ZM54.2058 10.0094C53.3381 12.4578 56.3443 12.8917 58.4208 10.6293C60.5282 8.30489 62.7906 4.83381 63.9993 2.47842C65.332 0.216004 62.7286 -0.930699 60.5592 0.92882C57.9869 3.09826 54.7947 8.30489 54.2058 10.0094ZM11.499 8.11894C9.57745 8.89374 16.0238 16.8897 18.6271 16.9517C21.6643 17.0136 21.9122 16.3318 19.8047 13.5116C16.4886 9.04871 13.6994 7.22018 11.499 8.11894ZM40.6314 19.617C39.4847 20.7637 38.121 22.3443 37.5941 23.0881C33.0693 29.8443 33.0073 29.9063 30.9308 28.3257C26.1271 24.7307 18.2241 22.2823 19.7737 28.5427C20.7345 32.3237 23.5858 39.2349 24.3296 41.5283C26.2511 47.5717 27.2738 48.5635 30.683 47.7577C39.1438 45.7122 51.2307 45.6502 59.8775 47.6027C62.0159 48.0986 62.1399 47.8507 62.3568 43.5428C62.7907 34.834 67.8113 26.3422 67.8113 23.6149C67.8113 20.5467 62.0159 22.8401 54.1439 29.0075L53.3381 29.6274L52.1914 28.8526C49.836 27.272 48.6582 28.5117 49.9909 31.146C51.0756 33.2844 51.9744 33.9973 54.3608 32.8506C55.7244 32.1997 57.615 30.96 60.2803 29.0695C61.334 28.3257 62.2019 27.7989 62.2019 27.8918C62.2019 28.3257 60.3113 36.4456 60.3113 36.4766L55.6005 36.0737C51.8504 35.9188 51.4166 37.9022 55.2906 38.4911C55.6934 38.5531 59.6604 39.049 59.6604 39.049C59.6604 39.049 59.5055 40.7845 59.0716 41.7762C58.6068 42.768 57.8319 43.0159 56.5613 42.582C46.6128 39.2969 30.404 43.2948 30.373 43.2948C29.7842 43.3878 24.3916 29.1625 24.8255 28.7286C24.8875 28.6666 25.5382 29.0695 26.282 29.6274C34.6809 35.7328 35.5487 35.5469 41.0963 26.6522L43.6996 22.4682L44.7223 23.9869C47.6975 28.4187 51.9124 26.4662 49.557 23.2121C48.7512 22.1273 47.4187 20.5157 45.2802 18.0054C44.3195 16.8587 42.8938 17.3545 40.6314 19.617ZM80.952 19.1521C79.8363 19.8029 74.0098 25.3815 73.3279 26.4352C71.8713 28.7596 74.9085 29.2865 77.6668 27.179C80.89 24.7306 85.4458 20.5158 85.4458 19.9579C85.4768 18.8422 82.4706 18.2843 80.952 19.1521ZM4.18481 33.9972C8.70964 35.113 11.3129 35.3919 12.3356 34.834C14.0092 33.9353 13.2344 33.2844 9.26747 32.2927C8.89556 32.1997 5.23848 31.177 2.72813 31.177C0.930597 31.177 -3.06731 32.1687 4.18481 33.9972Z" fill="#424242"/>
</svg>
