<svg width="43" height="39" viewBox="0 0 43 39" fill="none" xmlns="http://www.w3.org/2000/svg">
<path d="M9.3211 22.0789C9.94837 27.2878 11.5302 29.906 15.0755 31.5694C18.4026 33.124 18.8663 31.7878 16.33 29.3606C11.1756 24.397 10.0302 21.0425 13.3301 19.4336C15.0483 18.6153 27.7843 19.1061 27.7843 19.1061C29.066 19.079 30.1024 20.1425 30.0205 21.4244C29.6659 27.0151 27.8388 31.6513 22.1936 31.6787C20.7209 31.6787 20.257 32.2512 21.2661 32.7968C26.5843 35.6602 33.0204 29.1151 33.1568 20.7152C33.2114 16.9245 25.957 15.779 10.7938 17.17C8.83019 17.3881 8.77567 17.5517 9.3211 22.0789Z" fill="#757575"/>
<path d="M24.5934 11.4157C25.5753 11.8248 25.848 12.1794 25.957 13.1885C26.148 15.2884 27.7843 15.2339 27.7843 13.1611V11.6067H30.0479C33.5386 11.6067 33.4024 9.99761 29.8843 9.4249L27.9753 9.12491L27.8662 7.43406C27.7298 5.33411 26.6936 4.51594 25.6027 5.60683C25.3571 5.85228 25.139 6.61589 25.139 7.32497C25.139 8.4704 25.0297 8.57947 23.9935 8.57947C21.7571 8.57947 22.1662 10.3794 24.5934 11.4157Z" fill="#757575"/>
<path d="M29.0117 0.561298C24.3207 -0.120509 23.5025 0.670392 27.0206 2.52487C31.1388 4.70663 37.0567 11.5791 37.8476 17.9064C38.8294 25.7061 32.4205 34.4603 24.6208 35.9058C12.7029 38.1148 1.24871 25.297 5.12132 14.0608C7.63034 6.7793 13.8483 0.479473 18.6755 1.57036C21.4844 2.19761 21.7026 0.670392 19.4935 0.261308C18.2664 0.0431434 16.4391 -0.0114149 14.9393 0.261308C1.05781 2.66123 -4.96928 23.3334 5.39404 33.0421C16.7937 43.7055 34.9296 39.3148 41.4476 24.3425C45.3746 15.3428 38.3386 1.89762 29.0117 0.561298Z" fill="#757575"/>
<path d="M11.4756 11.2243C12.8665 11.2243 12.9755 11.306 12.9755 12.3424C12.9755 15.0697 15.021 15.806 15.4575 13.2152C15.8392 10.9517 15.9209 10.8426 17.3664 10.8426C19.2754 10.8426 19.0573 9.64254 17.0664 9.15166C15.7847 8.8244 15.6482 8.68804 15.6482 7.51534C15.6482 4.9245 13.9574 3.75183 13.0575 5.7154C12.8119 6.26085 12.6211 7.10626 12.6211 7.62444C12.6211 8.49714 12.5393 8.55167 11.1484 8.33351C8.20307 7.86987 8.31208 11.2243 11.4756 11.2243Z" fill="#757575"/>
</svg>
