<svg width="57" height="53" viewBox="0 0 57 53" fill="none" xmlns="http://www.w3.org/2000/svg">
<path fill-rule="evenodd" clip-rule="evenodd" d="M42.5896 0.811358C39.7762 2.07894 38.2612 4.55227 38.0448 8.20042C37.7665 13.0852 36.6535 14.7547 35.3859 12.2196C30.7794 3.13011 14.9501 0.564033 13.3425 8.66417C13.157 9.52983 13.126 9.52983 11.1164 9.52983C2.2743 9.46799 -2.8268 26.874 3.51109 35.4997C3.94392 36.0871 3.32559 38.1585 1.50151 42.2086C0.481266 44.4655 0.604902 44.8365 2.39806 45.6403C4.03664 46.3823 4.56225 45.6094 7.8394 37.5711C8.33407 36.3654 8.33407 35.0051 7.8394 33.7993C7.09741 32.0062 6.2008 30.0275 5.48972 28.6981C3.14006 24.0915 4.68592 17.599 9.07606 13.7036C13.0952 10.1482 17.2071 13.0852 13.6826 17.0116C8.8287 22.3911 13.4352 28.9145 20.5769 26.7813C26.9767 24.8953 27.224 15.9605 20.917 14.2601C17.5781 13.3635 16.1558 8.66417 18.691 6.96376C24.998 2.69727 32.8508 11.4466 32.016 21.8346C31.5832 27.245 37.0246 24.7717 37.0246 21.0617C37.0246 20.1033 37.2719 19.5777 38.2612 18.4338C40.3636 15.9914 41.3529 13.4253 41.8167 9.00424C42.2495 4.92326 47.5671 1.52244 49.082 4.36676C50.0405 6.15992 48.5255 15.7441 46.825 18.4956C45.4647 20.7216 40.6417 26.1938 39.0959 27.245C37.0863 28.6053 37.3029 29.7802 39.6834 30.1821C40.8583 30.3676 41.0438 30.3057 43.2388 28.4817C48.7111 23.9369 50.4424 21.711 51.7409 17.4445C52.6684 14.4147 54.0287 15.0948 54.0596 18.2483C54.0906 24.7099 47.3197 32.2535 40.8273 34.9123C39.2814 35.5616 39.1887 36.2726 40.5181 37.262C42.4968 38.715 46.0212 37.2001 50.0713 33.1501C52.6064 30.6149 52.7302 30.5531 52.4519 31.5733C50.937 37.4475 46.0522 42.3014 39.838 44.1254C35.7261 45.3312 31.8925 46.1968 29.0172 46.5678C28.6153 46.6915 26.1728 46.5988 24.1323 48.7629C21.1334 51.9473 25.7401 54.4825 27.3168 51.9473C28.4917 50.0305 28.8626 49.845 31.1504 49.8141C33.4074 49.8141 33.531 49.7832 39.9307 47.99C45.372 46.4751 48.5873 44.8984 50.9061 42.6415C55.7909 37.8494 57.8315 30.9241 55.2963 27.5851C54.7398 26.8431 54.7397 26.8122 55.6363 24.8644C57.4603 20.969 57.0276 15.8368 54.6161 12.9306C53.7504 11.8795 53.6886 11.6012 53.5959 9.06608C53.4722 3.06827 47.5053 -1.41463 42.5896 0.811358ZM20.4223 16.146C22.9884 17.4445 21.4736 24.1534 18.4747 24.8954C17.4235 25.1736 12.755 22.7621 16.4032 17.7227C18.0727 15.404 18.5674 15.1876 20.4223 16.146Z" fill="#697077"/>
</svg>
