<svg width="40" height="56" viewBox="0 0 40 56" fill="none" xmlns="http://www.w3.org/2000/svg">
<path d="M18.3646 0.395563C6.82435 2.82964 2.47173 20.4696 11.5494 27.8863C23.8344 37.9089 34.2577 28.8598 36.2049 25.0798C36.4628 24.5931 37.0642 23.9059 37.5223 23.5908C40.7009 21.3287 40.5291 15.7732 38.4674 10.8191C34.6302 1.51238 24.2923 -0.83579 18.3646 0.395563ZM10.8907 9.98868C14.9856 3.77462 19.9683 1.45509 26.526 2.71509C32.3679 3.86053 37.2646 9.24414 37.2646 14.5418C37.2646 15.4009 37.236 15.4009 36.0046 15.315C34.4583 15.2004 32.2532 16.0882 31.9669 16.9472C31.7379 17.6918 31.5088 17.6918 30.1342 17.0045C27.7288 15.7732 25.9818 12.7377 25.3807 8.7573C24.8365 5.17779 23.5193 3.86051 21.8297 5.20642C18.7944 7.64049 9.40167 14.37 9.25848 14.2268C9.02939 14.055 10.1748 11.0482 10.8907 9.98868ZM11.8643 15C14.8711 13.1386 19.8537 9.47321 20.7988 8.41368C21.486 7.66914 21.8011 7.66912 21.8011 8.47093C21.8297 13.1959 26.1823 17.8063 31.3656 18.5509L31.9381 18.6368C33.0265 18.8086 34.1432 18.5509 35.0309 17.9209L35.4891 17.6059C35.7181 17.4627 36.0046 17.4054 36.2623 17.4913C36.52 17.5772 36.7491 17.7491 36.8351 18.0068C37.3791 19.324 36.9495 21.0708 35.8328 22.1303C29.2465 28.4017 26.2109 29.8622 20.6269 29.4326C14.2697 28.9171 8.88613 23.2473 8.88613 17.0332C8.91478 16.9186 10.232 16.0023 11.8643 15Z" fill="#757575"/>
<path d="M39.2977 48.0748C36.9781 40.8871 33.2554 36.9925 27.5281 35.6753C26.0677 35.3316 23.1756 34.2434 15.1574 35.0739C7.68333 35.8757 1.92752 43.9511 0.610264 47.1869C-2.28199 54.1455 5.79335 56.5225 27.4709 56.2074C29.3609 55.8065 42.5335 58.0974 39.2977 48.0748ZM19.3095 36.5057C20.5123 36.3053 23.4907 36.019 26.4402 37.5081C26.5832 37.5653 26.6691 37.7085 26.6979 37.8516C26.7265 37.9948 26.6693 38.1381 26.5832 38.2525C24.5502 40.3716 22.0302 40.6867 20.9707 40.7439C20.6556 40.7439 20.3405 40.6006 20.1686 40.3716C19.7391 39.8276 19.0521 38.7106 18.8228 37.2502C18.7656 36.8781 18.9946 36.563 19.3095 36.5057ZM19.997 43.0062C19.6246 44.0369 15.3579 48.8765 14.7851 48.5902C14.2125 48.3039 15.4151 43.0348 16.2456 42.0897C17.076 41.1162 20.3693 41.9753 19.997 43.0062ZM11.2056 38.2239C12.2079 37.0785 14.556 36.6776 15.9019 36.5916C16.0165 36.5916 16.1023 36.6202 16.1595 36.7062C16.217 36.792 16.2456 36.8781 16.217 36.9925C15.3293 39.6844 11.4061 40.5148 11.1198 40.4576C10.8048 40.4002 10.4325 39.4553 11.2056 38.2239ZM7.9698 43.1206C7.28254 44.9534 6.9102 47.4734 6.9102 50.1365C6.9102 52.7711 6.8816 52.7997 4.93434 52.2269C2.72936 51.5969 2.18518 50.3369 3.27337 48.4469L3.90341 47.3016L4.33297 48.8192C5.27795 52.1125 6.19432 50.2225 5.47841 46.4997C5.19204 45.0106 5.33529 44.6383 6.96754 42.863C8.34208 41.4025 8.5998 41.4597 7.9698 43.1206ZM9.37295 48.0462C8.97204 47.8743 9.74525 43.9225 10.4039 42.7771C11.0625 41.6316 13.5251 41.0588 13.7542 41.832C14.0119 42.6339 9.77385 48.2465 9.37295 48.0462ZM36.7205 51.8834C36.6633 52.3988 35.0881 53.3151 33.2554 53.8593C31.5658 54.3746 15.7588 54.2888 13.9546 53.7446L13.1244 53.5155L15.8446 50.5088C21.0279 44.7816 25.5523 41.1162 28.3872 40.4002C30.5923 39.8276 30.4779 39.9995 33.5991 43.493C31.3656 44.4379 31.5944 44.5239 30.0481 43.7506C27.6714 42.5481 26.8695 43.1206 27.9865 45.2111C28.5305 46.242 28.6165 46.1848 24.8365 47.7883C20.8846 49.4779 18.6797 50.7665 18.6797 51.4251C18.6797 52.313 19.367 52.1697 22.4023 50.6806C29.3323 47.2444 30.7642 47.6453 29.8477 45.9271C29.447 45.2111 29.8477 45.2111 31.0791 45.9557C32.7114 46.9579 33.1981 46.4711 34.9449 45.383C35.7468 47.3302 36.9209 49.8216 36.7205 51.8834Z" fill="#757575"/>
</svg>
