<svg width="49" height="44" viewBox="0 0 49 44" fill="none" xmlns="http://www.w3.org/2000/svg">
<path fill-rule="evenodd" clip-rule="evenodd" d="M10.3994 1.16467C7.42165 1.65142 9.42597 3.62706 11.8884 3.97065C13.9499 4.25697 17.9011 4.25698 26.4049 4.22835C36.7698 4.19971 41.2078 4.31422 41.8663 4.60054C43.4984 5.34499 44.2143 8.20824 44.6724 15.9676C44.8442 18.7163 45.1877 22.8394 45.4454 25.1299C46.2471 32.4885 45.5027 33.2043 36.0827 33.5765C32.4464 33.7196 27.722 34.0059 25.6032 34.2064C15.6964 35.1512 9.54045 34.9794 6.10457 33.6051C3.24133 32.4598 3.38455 31.5436 3.29866 29.6252C3.09823 25.903 3.1841 18.3154 3.55632 11.415C3.87127 5.63129 4.24347 4.48601 6.10457 3.62704C7.24986 3.11166 6.84904 2.51039 5.41742 2.56766C3.26999 2.68219 1.60935 3.39799 1.29439 6.74797C0.893539 10.871 -1.65482 33.5192 2.92635 35.4376C5.93275 36.6974 11.1725 37.9286 13.234 37.9286C14.6656 37.9286 14.6084 39.532 13.1768 39.9615C9.88409 40.9064 12.2033 43.1969 16.5554 43.3687C25.3741 43.655 38.2587 42.9393 38.3733 42.1089C38.4878 41.2786 36.6267 39.3889 35.6532 39.3889C35.3382 39.3889 35.1377 39.0166 35.1377 38.4726C35.1377 37.6995 35.1378 36.6115 36.0254 36.6115C39.8335 36.6115 41.8663 36.4397 43.0116 36.182C48.5949 34.9794 48.824 31.2 48.7667 28.9953C48.5663 19.9761 46.877 11.3578 46.877 9.32491C46.8483 5.80314 44.7869 2.3386 40.3775 1.70869C38.6596 1.19331 13.3485 0.677916 10.3994 1.16467ZM25.3455 18.6877C25.002 18.3155 21.6806 14.6219 20.7644 13.677C19.6191 12.5031 18.4451 12.8753 15.9827 15.1372C14.7229 16.3111 12.7473 18.0578 11.5734 19.0599C7.50758 22.4958 7.1926 24.0419 10.5426 24.0419C11.6879 24.0419 12.232 23.641 15.6392 20.1479C20.0486 15.624 19.6477 15.6526 23.4844 19.3748C26.0614 21.8658 25.7464 21.8945 29.9267 18.6304C33.5344 15.2804 35.5959 13.0471 38.2014 10.4415C40.7783 7.86464 36.8271 6.6907 34.7369 8.46591C32.2745 10.4988 25.3742 18.659 25.3455 18.6877ZM34.6224 17.342C34.107 18.6591 34.3647 27.4492 34.9374 27.9932C36.3404 29.3962 37.1994 26.3897 37.1135 20.4342C37.0562 17.1415 35.4527 15.1659 34.6224 17.342ZM18.0443 20.921C17.1567 23.2689 17.9011 29.6825 19.7049 29.3675C21.5088 29.0526 20.2776 21.9804 19.8767 20.9496C19.6191 20.2052 18.3306 20.1766 18.0443 20.921ZM29.6976 21.5795C29.2108 22.1808 28.7241 26.6188 29.0391 27.8214C29.5831 29.9688 31.845 29.024 31.845 26.6475C31.845 22.6676 30.8142 20.2338 29.6976 21.5795ZM13.4058 24.6432C12.9763 25.0727 13.1481 28.2795 13.6635 28.9666C14.5797 30.2265 15.3814 29.4248 15.3814 27.2201C15.3528 24.9295 14.3793 23.6411 13.4058 24.6432ZM23.284 24.6432C22.5395 25.3876 23.0549 28.4513 23.9711 28.8807C25.4314 29.5393 25.9182 27.7354 25.0306 24.8722C24.8874 24.3568 23.7135 24.2137 23.284 24.6432ZM30.6712 37.0983C31.8165 37.4132 31.387 38.444 31.5015 39.3889L18.2733 39.6179C18.2733 39.532 18.5025 37.27 18.5025 37.4132C19.4187 37.3846 27.808 37.041 28.9533 36.9551C29.4114 36.8978 30.2131 36.9837 30.6712 37.0983Z" fill="#757575"/>
</svg>
