<svg width="32" height="43" viewBox="0 0 32 43" fill="none" xmlns="http://www.w3.org/2000/svg">
<path d="M13.3488 4.91609C15.323 6.20159 16.1723 5.48999 15.9657 2.7583C15.7821 0.416849 13.9457 -0.937565 13.3029 0.761134C12.7061 2.29915 12.752 4.52584 13.3488 4.91609Z" fill="#757575"/>
<path d="M8.0002 6.91366C8.96433 7.44164 12.0404 7.51053 12.6831 7.05142C14.0834 6.04138 9.63004 4.70994 7.58701 5.53634C6.85243 5.8118 7.03607 6.38569 8.0002 6.91366Z" fill="#757575"/>
<path d="M12.7061 8.26785C11.3287 10.4945 13.762 14.4199 15.3459 12.5146C15.805 11.9636 15.5523 9.27786 14.9784 8.70398C14.4045 8.15305 12.9586 7.85465 12.7061 8.26785Z" fill="#757575"/>
<path d="M19.6845 7.32674C22.2555 6.98241 22.485 6.91356 22.485 6.4315C22.485 5.39851 19.7304 4.96231 17.366 5.5821C14.4047 6.4085 16.2641 7.78584 19.6845 7.32674Z" fill="#757575"/>
<path d="M14.0834 34.1156C12.9126 33.5646 8.9184 33.5876 8.9184 34.1615C8.9184 34.919 10.2498 35.447 12.4076 35.5617C15.1393 35.6765 15.9427 34.9879 14.0834 34.1156Z" fill="#757575"/>
<path d="M28.2698 9.39283C25.2397 10.6554 21.7734 13.6166 17.366 15.6826C13.8768 17.3124 11.8108 17.2436 9.44638 15.9351C6.64582 14.42 5.17668 14.7185 6.53105 16.5319C8.55112 19.2407 8.18384 22.6151 5.58988 25.0025C3.36309 27.0455 5.8192 28.3081 9.23956 26.8848C11.5121 25.9436 11.7649 25.9666 14.5654 27.4358C17.9628 29.2263 18.6745 29.1345 18.7892 26.9766C18.8811 24.8188 19.5468 22.6151 20.5338 21.1919C22.0719 18.9193 27.673 13.0657 29.5324 11.7802C32.0575 10.0356 31.9886 7.85481 28.2698 9.39283ZM16.9758 19.562C16.0116 21.0082 15.5296 22.3856 15.4148 23.9236C15.2311 26.5405 15.323 25.0713 11.5124 24.2909C10.2269 24.0383 10.0891 23.9465 10.2039 23.5333C10.8696 21.2148 10.8696 20.2737 10.181 18.4602C10.0891 18.2306 10.4564 18.2765 11.5124 18.6209C12.3158 18.8734 13.5324 19.1029 14.2211 19.1259C15.6673 19.1718 16.7232 18.9423 17.4808 18.8045L16.9758 19.562Z" fill="#757575"/>
<path d="M8.89523 33.4498C9.44616 31.9577 9.42343 30.787 8.82659 30.1902C8.11497 29.4786 6.7606 29.3867 6.41627 30.0065C6.14081 30.5116 6.30149 31.1314 6.34741 32.3021C6.41627 33.7712 8.43612 34.6894 8.89523 33.4498Z" fill="#757575"/>
<path d="M6.53105 36.9392C6.07194 37.6738 6.30127 41.3696 6.82924 41.8058C8.52794 43.1831 9.46934 41.9435 8.94137 39.0052C8.59704 37.1229 7.1738 35.9062 6.53105 36.9392Z" fill="#757575"/>
<path d="M0.493707 33.6564C-0.149044 33.7941 -0.172024 34.2303 0.470728 34.7812C1.15939 35.401 5.42919 35.5847 5.63579 34.9878C6.04898 33.9319 2.97289 33.1284 0.493707 33.6564Z" fill="#757575"/>
</svg>
